# xmcd
#
# Track frame offsets:
#	150
#	20254
#	38247
#	55658
#	70263
#	84065
#	105766
#	123680
#	138509
#	158900
#	216683
#	248812
#	277276
#	292087
#	310043
# Disc length: 4309 seconds
# Revision: 1
# Processed by: cddbd v1.5.2PL0 Copyright (c) Steve Scherf et al.
#
# Submitted via: libkcddb 0.31
#
DISCID=da10d30f
DTITLE=Jose A. Alonso - Tierra de Silencio y Fiesta
DYEAR=2006
DGENRE=Unknown
TTITLE0=Pregon
TTITLE1=Vals del Aire
TTITLE2=Rabelada
TTITLE3=Mayo
TTITLE4=Jota del Tio Emeterio
TTITLE5=El Hombre de la Luna
TTITLE6=Tia Juana
TTITLE7=La Tia Tabernera
TTITLE8=Tierra de Silencio
TTITLE9=De Fiesta
TTITLE10=Cantares de Boda
TTITLE11=Mayos de Alcoroche
TTITLE12=Jota de Pastores
TTITLE13=Jarchas
TTITLE14=En un Dia de Abril
EXTD=Recopilatorio: Tierra de Silencio (1998) y de Fiesta (1990), Nieves Diges, Manuel Carrasco, Julian Jimenez, Rafael Garcia, Victor Llorente
EXTT0=
EXTT1=
EXTT2=
EXTT3=
EXTT4=
EXTT5=
EXTT6=
EXTT7=
EXTT8=
EXTT9=
EXTT10=
EXTT11=
EXTT12=
EXTT13=
EXTT14=
PLAYORDER=
